<svg version="1.1" viewBox="0.0 0.0 960.0 540.0" fill="none" stroke="none" stroke-linecap="square" stroke-miterlimit="10" xmlns:xlink="http://www.w3.org/1999/xlink" xmlns="http://www.w3.org/2000/svg"><clipPath id="gc18c0b38a7_0_53.0"><path d="m0 0l960.0 0l0 540.0l-960.0 0l0 -540.0z" clip-rule="nonzero"/></clipPath><g clip-path="url(#gc18c0b38a7_0_53.0)"><path fill="#000000" d="m0 0l960.0 0l0 540.0l-960.0 0z" fill-rule="evenodd"/><path fill="#eeeeee" d="m426.063 97.238846l0 0c0 -28.623138 24.148438 -51.82677 53.93701 -51.82677l0 0c14.304993 0 28.024078 5.4603043 38.13922 15.179707c10.115173 9.719406 15.797791 22.901749 15.797791 36.647064l0 0c0 28.623138 -24.148438 51.826767 -53.93701 51.826767l0 0c-29.788574 0 -53.93701 -23.203629 -53.93701 -51.826767z" fill-rule="evenodd"/><path stroke="#595959" stroke-width="1.0" stroke-linejoin="round" stroke-linecap="butt" d="m426.063 97.238846l0 0c0 -28.623138 24.148438 -51.82677 53.93701 -51.82677l0 0c14.304993 0 28.024078 5.4603043 38.13922 15.179707c10.115173 9.719406 15.797791 22.901749 15.797791 36.647064l0 0c0 28.623138 -24.148438 51.826767 -53.93701 51.826767l0 0c-29.788574 0 -53.93701 -23.203629 -53.93701 -51.826767z" fill-rule="evenodd"/><path fill="#000000" d="m460.36145 97.86697l0 -1.09375l6.3125 -2.671875l0 1.171875l-5.015625 2.046875l5.015625 2.078125l0 1.171875l-6.3125 -2.703125zm7.9240417 4.171875l0 -9.546875l1.171875 0l0 3.421875q0.828125 -0.9375 2.078125 -0.9375q0.765625 0 1.328125 0.296875q0.5625 0.296875 0.8125 0.84375q0.25 0.53125 0.25 1.546875l0 4.375l-1.171875 0l0 -4.375q0 -0.890625 -0.390625 -1.28125q-0.375 -0.40625 -1.078125 -0.40625q-0.515625 0 -0.984375 0.28125q-0.453125 0.265625 -0.65625 0.734375q-0.1875 0.453125 -0.1875 1.265625l0 3.78125l-1.171875 0zm9.974976 -1.046875l0.171875 1.03125q-0.5 0.109375 -0.890625 0.109375q-0.640625 0 -1.0 -0.203125q-0.34375 -0.203125 -0.484375 -0.53125q-0.140625 -0.328125 -0.140625 -1.390625l0 -3.96875l-0.859375 0l0 -0.90625l0.859375 0l0 -1.71875l1.171875 -0.703125l0 2.421875l1.171875 0l0 0.90625l-1.171875 0l0 4.046875q0 0.5 0.046875 0.640625q0.0625 0.140625 0.203125 0.234375q0.140625 0.078125 0.40625 0.078125q0.203125 0 0.515625 -0.046875zm1.1405029 1.046875l0 -6.90625l1.046875 0l0 0.96875q0.328125 -0.515625 0.859375 -0.8125q0.546875 -0.3125 1.234375 -0.3125q0.78125 0 1.265625 0.3125q0.484375 0.3125 0.6875 0.890625q0.828125 -1.203125 2.140625 -1.203125q1.03125 0 1.578125 0.578125q0.5625 0.5625 0.5625 1.734375l0 4.75l-1.171875 0l0 -4.359375q0 -0.703125 -0.125 -1.0q-0.109375 -0.3125 -0.40625 -0.5q-0.296875 -0.1875 -0.703125 -0.1875q-0.71875 0 -1.203125 0.484375q-0.484375 0.484375 -0.484375 1.546875l0 4.015625l-1.171875 0l0 -4.484375q0 -0.78125 -0.296875 -1.171875q-0.28125 -0.390625 -0.921875 -0.390625q-0.5 0 -0.921875 0.265625q-0.421875 0.25 -0.609375 0.75q-0.1875 0.5 -0.1875 1.453125l0 3.578125l-1.171875 0zm11.086792 0l0 -9.546875l1.171875 0l0 9.546875l-1.171875 0zm9.14859 -4.171875l-6.3125 2.703125l0 -1.171875l5.0 -2.078125l-5.0 -2.046875l0 -1.171875l6.3125 2.671875l0 1.09375z" fill-rule="nonzero"/><path fill="#eeeeee" d="m235.73491 200.8924l0 0c0 -28.623138 24.148422 -51.826782 53.936996 -51.826782l0 0c14.304993 0 28.024078 5.460312 38.13922 15.179718c10.115173 9.719406 15.797791 22.901749 15.797791 36.647064l0 0c0 28.623123 -24.148407 51.826767 -53.93701 51.826767l0 0c-29.788574 0 -53.936996 -23.203644 -53.936996 -51.826767z" fill-rule="evenodd"/><path stroke="#595959" stroke-width="1.0" stroke-linejoin="round" stroke-linecap="butt" d="m235.73491 200.8924l0 0c0 -28.623138 24.148422 -51.826782 53.936996 -51.826782l0 0c14.304993 0 28.024078 5.460312 38.13922 15.179718c10.115173 9.719406 15.797791 22.901749 15.797791 36.647064l0 0c0 28.623123 -24.148407 51.826767 -53.93701 51.826767l0 0c-29.788574 0 -53.936996 -23.203644 -53.936996 -51.826767z" fill-rule="evenodd"/><path fill="#000000" d="m267.7979 201.52051l0 -1.09375l6.3125 -2.671875l0 1.171875l-5.015625 2.046875l5.015625 2.078125l0 1.171875l-6.3125 -2.703125zm7.9240417 4.171875l0 -9.546875l1.171875 0l0 3.421875q0.828125 -0.9375 2.078125 -0.9375q0.765625 0 1.328125 0.296875q0.5625 0.296875 0.8125 0.84375q0.25 0.53125 0.25 1.546875l0 4.375l-1.171875 0l0 -4.375q0 -0.890625 -0.390625 -1.28125q-0.375 -0.40625 -1.078125 -0.40625q-0.515625 0 -0.984375 0.28125q-0.453125 0.265625 -0.65625 0.734375q-0.1875 0.453125 -0.1875 1.265625l0 3.78125l-1.171875 0zm12.146851 -2.21875l1.203125 0.140625q-0.28125 1.0625 -1.0625 1.65625q-0.765625 0.578125 -1.96875 0.578125q-1.515625 0 -2.40625 -0.9375q-0.890625 -0.9375 -0.890625 -2.609375q0 -1.75 0.890625 -2.703125q0.90625 -0.96875 2.34375 -0.96875q1.390625 0 2.265625 0.9375q0.875 0.9375 0.875 2.65625q0 0.109375 0 0.3125l-5.15625 0q0.0625 1.140625 0.640625 1.75q0.578125 0.59375 1.4375 0.59375q0.65625 0 1.109375 -0.328125q0.453125 -0.34375 0.71875 -1.078125zm-3.84375 -1.90625l3.859375 0q-0.078125 -0.859375 -0.4375 -1.296875q-0.5625 -0.6875 -1.453125 -0.6875q-0.8125 0 -1.359375 0.546875q-0.546875 0.53125 -0.609375 1.4375zm11.037476 3.265625q-0.65625 0.5625 -1.265625 0.796875q-0.59375 0.21875 -1.28125 0.21875q-1.140625 0 -1.75 -0.546875q-0.609375 -0.5625 -0.609375 -1.4375q0 -0.5 0.21875 -0.921875q0.234375 -0.421875 0.609375 -0.671875q0.375 -0.25 0.84375 -0.390625q0.34375 -0.078125 1.046875 -0.171875q1.421875 -0.171875 2.09375 -0.40625q0 -0.234375 0 -0.296875q0 -0.71875 -0.328125 -1.015625q-0.453125 -0.390625 -1.34375 -0.390625q-0.8125 0 -1.21875 0.296875q-0.390625 0.28125 -0.578125 1.015625l-1.140625 -0.15625q0.15625 -0.734375 0.515625 -1.1875q0.359375 -0.453125 1.03125 -0.6875q0.671875 -0.25 1.5625 -0.25q0.890625 0 1.4375 0.203125q0.5625 0.203125 0.8125 0.53125q0.265625 0.3125 0.375 0.796875q0.046875 0.296875 0.046875 1.078125l0 1.5625q0 1.625 0.078125 2.0625q0.078125 0.4375 0.296875 0.828125l-1.21875 0q-0.1875 -0.359375 -0.234375 -0.859375zm-0.09375 -2.609375q-0.640625 0.265625 -1.921875 0.4375q-0.71875 0.109375 -1.015625 0.25q-0.296875 0.125 -0.46875 0.375q-0.15625 0.25 -0.15625 0.546875q0 0.46875 0.34375 0.78125q0.359375 0.3125 1.046875 0.3125q0.671875 0 1.203125 -0.296875q0.53125 -0.296875 0.78125 -0.8125q0.1875 -0.390625 0.1875 -1.171875l0 -0.421875zm7.4749756 3.46875l0 -0.875q-0.65625 1.03125 -1.9375 1.03125q-0.8125 0 -1.515625 -0.453125q-0.6875 -0.453125 -1.078125 -1.265625q-0.375 -0.828125 -0.375 -1.890625q0 -1.03125 0.34375 -1.875q0.34375 -0.84375 1.03125 -1.28125q0.703125 -0.453125 1.546875 -0.453125q0.625 0 1.109375 0.265625q0.5 0.25 0.796875 0.671875l0 -3.421875l1.171875 0l0 9.546875l-1.09375 0zm-3.703125 -3.453125q0 1.328125 0.5625 1.984375q0.5625 0.65625 1.328125 0.65625q0.765625 0 1.296875 -0.625q0.53125 -0.625 0.53125 -1.90625q0 -1.421875 -0.546875 -2.078125q-0.546875 -0.671875 -1.34375 -0.671875q-0.78125 0 -1.3125 0.640625q-0.515625 0.625 -0.515625 2.0zm12.803101 -0.71875l-6.3125 2.703125l0 -1.171875l5.0 -2.078125l-5.0 -2.046875l0 -1.171875l6.3125 2.671875l0 1.09375z" fill-rule="nonzero"/><path fill="#eeeeee" d="m616.39105 188.47769l0 0c0 -28.623138 24.148438 -51.826767 53.93701 -51.826767l0 0c14.304993 0 28.024109 5.4602966 38.13922 15.179703c10.115173 9.719406 15.797791 22.901749 15.797791 36.647064l0 0c0 28.623138 -24.148376 51.826767 -53.93701 51.826767l0 0c-29.788574 0 -53.93701 -23.203629 -53.93701 -51.826767z" fill-rule="evenodd"/><path stroke="#595959" stroke-width="1.0" stroke-linejoin="round" stroke-linecap="butt" d="m616.39105 188.47769l0 0c0 -28.623138 24.148438 -51.826767 53.93701 -51.826767l0 0c14.304993 0 28.024109 5.4602966 38.13922 15.179703c10.115173 9.719406 15.797791 22.901749 15.797791 36.647064l0 0c0 28.623138 -24.148376 51.826767 -53.93701 51.826767l0 0c-29.788574 0 -53.93701 -23.203629 -53.93701 -51.826767z" fill-rule="evenodd"/><path fill="#000000" d="m648.8283 189.10582l0 -1.09375l6.3125 -2.671875l0 1.171875l-5.015625 2.046875l5.015625 2.078125l0 1.171875l-6.3125 -2.703125zm9.002136 4.171875l-1.078125 0l0 -9.546875l1.171875 0l0 3.40625q0.734375 -0.921875 1.890625 -0.921875q0.640625 0 1.203125 0.265625q0.578125 0.25 0.9375 0.71875q0.375 0.453125 0.578125 1.109375q0.203125 0.65625 0.203125 1.40625q0 1.78125 -0.875 2.75q-0.875 0.96875 -2.109375 0.96875q-1.21875 0 -1.921875 -1.015625l0 0.859375zm0 -3.5q0 1.234375 0.328125 1.78125q0.5625 0.90625 1.5 0.90625q0.765625 0 1.328125 -0.65625q0.5625 -0.671875 0.5625 -2.0q0 -1.34375 -0.546875 -1.984375q-0.53125 -0.65625 -1.296875 -0.65625q-0.765625 0 -1.328125 0.671875q-0.546875 0.671875 -0.546875 1.9375zm5.8968506 0.046875q0 -1.921875 1.078125 -2.84375q0.890625 -0.765625 2.171875 -0.765625q1.421875 0 2.328125 0.9375q0.90625 0.921875 0.90625 2.578125q0 1.328125 -0.40625 2.09375q-0.390625 0.765625 -1.15625 1.1875q-0.765625 0.421875 -1.671875 0.421875q-1.453125 0 -2.359375 -0.921875q-0.890625 -0.9375 -0.890625 -2.6875zm1.203125 0q0 1.328125 0.578125 1.984375q0.59375 0.65625 1.46875 0.65625q0.875 0 1.453125 -0.65625q0.578125 -0.671875 0.578125 -2.03125q0 -1.28125 -0.59375 -1.9375q-0.578125 -0.65625 -1.4375 -0.65625q-0.875 0 -1.46875 0.65625q-0.578125 0.65625 -0.578125 1.984375zm11.131226 3.453125l0 -0.875q-0.65625 1.03125 -1.9375 1.03125q-0.8125 0 -1.515625 -0.453125q-0.6875 -0.453125 -1.078125 -1.265625q-0.375 -0.828125 -0.375 -1.890625q0 -1.03125 0.34375 -1.875q0.34375 -0.84375 1.03125 -1.28125q0.703125 -0.453125 1.546875 -0.453125q0.625 0 1.109375 0.265625q0.5 0.25 0.796875 0.671875l0 -3.421875l1.171875 0l0 9.546875l-1.09375 0zm-3.703125 -3.453125q0 1.328125 0.5625 1.984375q0.5625 0.65625 1.328125 0.65625q0.765625 0 1.296875 -0.625q0.53125 -0.625 0.53125 -1.90625q0 -1.421875 -0.546875 -2.078125q-0.546875 -0.671875 -1.34375 -0.671875q-0.78125 0 -1.3125 0.640625q-0.515625 0.625 -0.515625 2.0zm6.5843506 6.109375l-0.125 -1.09375q0.375 0.109375 0.65625 0.109375q0.390625 0 0.625 -0.140625q0.234375 -0.125 0.390625 -0.359375q0.109375 -0.171875 0.359375 -0.875q0.03125 -0.09375 0.109375 -0.28125l-2.625 -6.921875l1.265625 0l1.4375 4.0q0.28125 0.765625 0.5 1.59375q0.203125 -0.796875 0.46875 -1.578125l1.484375 -4.015625l1.171875 0l-2.625 7.015625q-0.421875 1.140625 -0.65625 1.578125q-0.3125 0.578125 -0.71875 0.84375q-0.40625 0.28125 -0.96875 0.28125q-0.328125 0 -0.75 -0.15625zm12.8828125 -6.828125l-6.3125 2.703125l0 -1.171875l5.0 -2.078125l-5.0 -2.046875l0 -1.171875l6.3125 2.671875l0 1.09375z" fill-rule="nonzero"/><path fill="#eeeeee" d="m127.86089 335.56955l0 0c0 -28.623138 24.148415 -51.826782 53.937004 -51.826782l0 0c14.304993 0 28.024078 5.460327 38.13922 15.179718c10.115158 9.719421 15.797791 22.901764 15.797791 36.647064l0 0c0 28.623138 -24.148422 51.826782 -53.93701 51.826782l0 0c-29.78859 0 -53.937004 -23.203644 -53.937004 -51.826782z" fill-rule="evenodd"/><path stroke="#595959" stroke-width="1.0" stroke-linejoin="round" stroke-linecap="butt" d="m127.86089 335.56955l0 0c0 -28.623138 24.148415 -51.826782 53.937004 -51.826782l0 0c14.304993 0 28.024078 5.460327 38.13922 15.179718c10.115158 9.719421 15.797791 22.901764 15.797791 36.647064l0 0c0 28.623138 -24.148422 51.826782 -53.93701 51.826782l0 0c-29.78859 0 -53.937004 -23.203644 -53.937004 -51.826782z" fill-rule="evenodd"/><path fill="#000000" d="m159.93367 336.19766l0 -1.09375l6.3125 -2.671875l0 1.171875l-5.015625 2.046875l5.015625 2.078125l0 1.171875l-6.3125 -2.703125zm7.9240417 4.171875l0 -6.90625l1.046875 0l0 0.96875q0.328125 -0.515625 0.859375 -0.8125q0.546875 -0.3125 1.234375 -0.3125q0.78125 0 1.265625 0.3125q0.484375 0.3125 0.6875 0.890625q0.828125 -1.203125 2.140625 -1.203125q1.03125 0 1.578125 0.578125q0.5625 0.5625 0.5625 1.734375l0 4.75l-1.171875 0l0 -4.359375q0 -0.703125 -0.125 -1.0q-0.109375 -0.3125 -0.40625 -0.5q-0.296875 -0.1875 -0.703125 -0.1875q-0.71875 0 -1.203125 0.484375q-0.484375 0.484375 -0.484375 1.546875l0 4.015625l-1.171875 0l0 -4.484375q0 -0.78125 -0.296875 -1.171875q-0.28125 -0.390625 -0.921875 -0.390625q-0.5 0 -0.921875 0.265625q-0.421875 0.25 -0.609375 0.75q-0.1875 0.5 -0.1875 1.453125l0 3.578125l-1.171875 0zm15.836807 -2.21875l1.203125 0.140625q-0.28125 1.0625 -1.0625 1.65625q-0.765625 0.578125 -1.96875 0.578125q-1.515625 0 -2.40625 -0.9375q-0.890625 -0.9375 -0.890625 -2.609375q0 -1.75 0.890625 -2.703125q0.90625 -0.96875 2.34375 -0.96875q1.390625 0 2.265625 0.9375q0.875 0.9375 0.875 2.65625q0 0.109375 0 0.3125l-5.15625 0q0.0625 1.140625 0.640625 1.75q0.578125 0.59375 1.4375 0.59375q0.65625 0 1.109375 -0.328125q0.453125 -0.34375 0.71875 -1.078125zm-3.84375 -1.90625l3.859375 0q-0.078125 -0.859375 -0.4375 -1.296875q-0.5625 -0.6875 -1.453125 -0.6875q-0.8125 0 -1.359375 0.546875q-0.546875 0.53125 -0.609375 1.4375zm9.084351 3.078125l0.171875 1.03125q-0.5 0.109375 -0.890625 0.109375q-0.640625 0 -1.0 -0.203125q-0.34375 -0.203125 -0.484375 -0.53125q-0.140625 -0.328125 -0.140625 -1.390625l0 -3.96875l-0.859375 0l0 -0.90625l0.859375 0l0 -1.71875l1.171875 -0.703125l0 2.421875l1.171875 0l0 0.90625l-1.171875 0l0 4.046875q0 0.5 0.046875 0.640625q0.0625 0.140625 0.203125 0.234375q0.140625 0.078125 0.40625 0.078125q0.203125 0 0.515625 -0.046875zm5.6561127 0.1875q-0.65625 0.5625 -1.265625 0.796875q-0.59375 0.21875 -1.28125 0.21875q-1.140625 0 -1.75 -0.546875q-0.609375 -0.5625 -0.609375 -1.4375q0 -0.5 0.21875 -0.921875q0.234375 -0.421875 0.609375 -0.671875q0.375 -0.25 0.84375 -0.390625q0.34375 -0.078125 1.046875 -0.171875q1.421875 -0.171875 2.09375 -0.40625q0 -0.234375 0 -0.296875q0 -0.71875 -0.328125 -1.015625q-0.453125 -0.390625 -1.34375 -0.390625q-0.8125 0 -1.21875 0.296875q-0.390625 0.28125 -0.578125 1.015625l-1.140625 -0.15625q0.15625 -0.734375 0.515625 -1.1875q0.359375 -0.453125 1.03125 -0.6875q0.671875 -0.25 1.5625 -0.25q0.890625 0 1.4375 0.203125q0.5625 0.203125 0.8125 0.53125q0.265625 0.3125 0.375 0.796875q0.046875 0.296875 0.046875 1.078125l0 1.5625q0 1.625 0.078125 2.0625q0.078125 0.4375 0.296875 0.828125l-1.21875 0q-0.1875 -0.359375 -0.234375 -0.859375zm-0.09375 -2.609375q-0.640625 0.265625 -1.921875 0.4375q-0.71875 0.109375 -1.015625 0.25q-0.296875 0.125 -0.46875 0.375q-0.15625 0.25 -0.15625 0.546875q0 0.46875 0.34375 0.78125q0.359375 0.3125 1.046875 0.3125q0.671875 0 1.203125 -0.296875q0.53125 -0.296875 0.78125 -0.8125q0.1875 -0.390625 0.1875 -1.171875l0 -0.421875zm9.162476 -0.703125l-6.3125 2.703125l0 -1.171875l5.0 -2.078125l-5.0 -2.046875l0 -1.171875l6.3125 2.671875l0 1.09375z" fill-rule="nonzero"/><path fill="#eeeeee" d="m329.41995 335.56955l0 0c0 -28.623138 24.148407 -51.826782 53.93701 -51.826782l0 0c14.304962 0 28.024078 5.460327 38.13922 15.179718c10.115143 9.719421 15.797791 22.901764 15.797791 36.647064l0 0c0 28.623138 -24.148438 51.826782 -53.93701 51.826782l0 0c-29.788605 0 -53.93701 -23.203644 -53.93701 -51.826782z" fill-rule="evenodd"/><path stroke="#595959" stroke-width="1.0" stroke-linejoin="round" stroke-linecap="butt" d="m329.41995 335.56955l0 0c0 -28.623138 24.148407 -51.826782 53.93701 -51.826782l0 0c14.304962 0 28.024078 5.460327 38.13922 15.179718c10.115143 9.719421 15.797791 22.901764 15.797791 36.647064l0 0c0 28.623138 -24.148438 51.826782 -53.93701 51.826782l0 0c-29.788605 0 -53.93701 -23.203644 -53.93701 -51.826782z" fill-rule="evenodd"/><path fill="#000000" d="m366.30856 336.19766l0 -1.09375l6.3125 -2.671875l0 1.171875l-5.015625 2.046875l5.015625 2.078125l0 1.171875l-6.3125 -2.703125zm7.9084167 4.171875l0 -9.546875l1.171875 0l0 9.546875l-1.171875 0zm2.99234 -8.1875l0 -1.359375l1.171875 0l0 1.359375l-1.171875 0zm0 8.1875l0 -6.90625l1.171875 0l0 6.90625l-1.171875 0zm2.945465 0l0 -6.90625l1.0625 0l0 0.984375q0.75 -1.140625 2.1875 -1.140625q0.625 0 1.15625 0.21875q0.53125 0.21875 0.78125 0.59375q0.265625 0.359375 0.375 0.859375q0.0625 0.328125 0.0625 1.140625l0 4.25l-1.171875 0l0 -4.203125q0 -0.71875 -0.140625 -1.0625q-0.140625 -0.359375 -0.484375 -0.5625q-0.34375 -0.21875 -0.8125 -0.21875q-0.75 0 -1.296875 0.46875q-0.546875 0.46875 -0.546875 1.796875l0 3.78125l-1.171875 0zm7.4281006 0l0 -9.546875l1.171875 0l0 5.453125l2.765625 -2.8125l1.515625 0l-2.640625 2.5625l2.90625 4.34375l-1.4375 0l-2.28125 -3.53125l-0.828125 0.796875l0 2.734375l-1.171875 0zm12.8203125 -4.171875l-6.3125 2.703125l0 -1.171875l5.0 -2.078125l-5.0 -2.046875l0 -1.171875l6.3125 2.671875l0 1.09375z" fill-rule="nonzero"/><path fill="#eeeeee" d="m522.2651 335.56955l0 0c0 -28.623138 24.148438 -51.826782 53.93701 -51.826782l0 0c14.304993 0 28.024109 5.460327 38.13922 15.179718c10.115173 9.719421 15.797791 22.901764 15.797791 36.647064l0 0c0 28.623138 -24.148438 51.826782 -53.93701 51.826782l0 0c-29.788574 0 -53.93701 -23.203644 -53.93701 -51.826782z" fill-rule="evenodd"/><path stroke="#595959" stroke-width="1.0" stroke-linejoin="round" stroke-linecap="butt" d="m522.2651 335.56955l0 0c0 -28.623138 24.148438 -51.826782 53.93701 -51.826782l0 0c14.304993 0 28.024109 5.460327 38.13922 15.179718c10.115173 9.719421 15.797791 22.901764 15.797791 36.647064l0 0c0 28.623138 -24.148438 51.826782 -53.93701 51.826782l0 0c-29.788574 0 -53.93701 -23.203644 -53.93701 -51.826782z" fill-rule="evenodd"/><path fill="#000000" d="m561.7406 336.19766l0 -1.09375l6.3125 -2.671875l0 1.171875l-5.015625 2.046875l5.015625 2.078125l0 1.171875l-6.3125 -2.703125zm7.924011 4.171875l0 -9.546875l1.171875 0l0 3.421875q0.828125 -0.9375 2.078125 -0.9375q0.765625 0 1.328125 0.296875q0.5625 0.296875 0.8125 0.84375q0.25 0.53125 0.25 1.546875l0 4.375l-1.171875 0l0 -4.375q0 -0.890625 -0.390625 -1.28125q-0.375 -0.40625 -1.078125 -0.40625q-0.515625 0 -0.984375 0.28125q-0.453125 0.265625 -0.65625 0.734375q-0.1875 0.453125 -0.1875 1.265625l0 3.78125l-1.171875 0zm11.506226 0l-1.171875 0l0 -7.46875q-0.421875 0.40625 -1.109375 0.8125q-0.6875 0.40625 -1.234375 0.609375l0 -1.140625q0.984375 -0.453125 1.71875 -1.109375q0.734375 -0.671875 1.03125 -1.28125l0.765625 0l0 9.578125zm9.490601 -4.171875l-6.3125 2.703125l0 -1.171875l5.0 -2.078125l-5.0 -2.046875l0 -1.171875l6.3125 2.671875l0 1.09375z" fill-rule="nonzero"/><path fill="#eeeeee" d="m715.1102 333.69684l0 0c0 -28.623138 24.148438 -51.82675 53.93701 -51.82675l0 0c14.304993 0 28.024048 5.4602966 38.13922 15.1796875c10.115173 9.719421 15.797791 22.901764 15.797791 36.647064l0 0c0 28.623138 -24.148438 51.826782 -53.93701 51.826782l0 0c-29.788574 0 -53.93701 -23.203644 -53.93701 -51.826782z" fill-rule="evenodd"/><path stroke="#595959" stroke-width="1.0" stroke-linejoin="round" stroke-linecap="butt" d="m715.1102 333.69684l0 0c0 -28.623138 24.148438 -51.82675 53.93701 -51.82675l0 0c14.304993 0 28.024048 5.4602966 38.13922 15.1796875c10.115173 9.719421 15.797791 22.901764 15.797791 36.647064l0 0c0 28.623138 -24.148438 51.826782 -53.93701 51.826782l0 0c-29.788574 0 -53.93701 -23.203644 -53.93701 -51.826782z" fill-rule="evenodd"/><path fill="#000000" d="m753.4794 334.32498l0 -1.09375l6.3125 -2.671875l0 1.171875l-5.015625 2.046875l5.015625 2.078125l0 1.171875l-6.3125 -2.703125zm12.408447 4.171875l0 -0.875q-0.65625 1.03125 -1.9375 1.03125q-0.8125 0 -1.515625 -0.453125q-0.6875 -0.453125 -1.078125 -1.265625q-0.375 -0.828125 -0.375 -1.890625q0 -1.03125 0.34375 -1.875q0.34375 -0.84375 1.03125 -1.28125q0.703125 -0.453125 1.546875 -0.453125q0.625 0 1.109375 0.265625q0.5 0.25 0.796875 0.671875l0 -3.421875l1.171875 0l0 9.546875l-1.09375 0zm-3.703125 -3.453125q0 1.328125 0.5625 1.984375q0.5625 0.65625 1.328125 0.65625q0.765625 0 1.296875 -0.625q0.53125 -0.625 0.53125 -1.90625q0 -1.421875 -0.546875 -2.078125q-0.546875 -0.671875 -1.34375 -0.671875q-0.78125 0 -1.3125 0.640625q-0.515625 0.625 -0.515625 2.0zm6.6468506 -4.734375l0 -1.359375l1.171875 0l0 1.359375l-1.171875 0zm0 8.1875l0 -6.90625l1.171875 0l0 6.90625l-1.171875 0zm4.8673096 0l-2.625 -6.90625l1.234375 0l1.484375 4.140625q0.234375 0.65625 0.4375 1.390625q0.15625 -0.546875 0.4375 -1.3125l1.53125 -4.21875l1.21875 0l-2.625 6.90625l-1.09375 0zm10.9140625 -4.171875l-6.3125 2.703125l0 -1.171875l5.0 -2.078125l-5.0 -2.046875l0 -1.171875l6.3125 2.671875l0 1.09375z" fill-rule="nonzero"/><path fill="#eeeeee" d="m715.1102 477.93176l0 0c0 -28.623138 24.148438 -51.826782 53.93701 -51.826782l0 0c14.304993 0 28.024048 5.4602966 38.13922 15.179718c10.115173 9.719391 15.797791 22.901733 15.797791 36.647064l0 0c0 28.623138 -24.148438 51.826782 -53.93701 51.826782l0 0c-29.788574 0 -53.93701 -23.203644 -53.93701 -51.826782z" fill-rule="evenodd"/><path stroke="#595959" stroke-width="1.0" stroke-linejoin="round" stroke-linecap="butt" d="m715.1102 477.93176l0 0c0 -28.623138 24.148438 -51.826782 53.93701 -51.826782l0 0c14.304993 0 28.024048 5.4602966 38.13922 15.179718c10.115173 9.719391 15.797791 22.901733 15.797791 36.647064l0 0c0 28.623138 -24.148438 51.826782 -53.93701 51.826782l0 0c-29.788574 0 -53.93701 -23.203644 -53.93701 -51.826782z" fill-rule="evenodd"/><path fill="#000000" d="m751.2602 478.55988l0 -1.09375l6.3125 -2.671875l0 1.171875l-5.015625 2.046875l5.015625 2.078125l0 1.171875l-6.3125 -2.703125zm7.9396973 -4.015625l0 -1.359375l1.171875 0l0 1.359375l-1.171875 0zm0 8.1875l0 -6.90625l1.171875 0l0 6.90625l-1.171875 0zm2.9454346 0l0 -6.90625l1.046875 0l0 0.96875q0.328125 -0.515625 0.859375 -0.8125q0.546875 -0.3125 1.234375 -0.3125q0.78125 0 1.265625 0.3125q0.484375 0.3125 0.6875 0.890625q0.828125 -1.203125 2.140625 -1.203125q1.03125 0 1.578125 0.578125q0.5625 0.5625 0.5625 1.734375l0 4.75l-1.171875 0l0 -4.359375q0 -0.703125 -0.125 -1.0q-0.109375 -0.3125 -0.40625 -0.5q-0.296875 -0.1875 -0.703125 -0.1875q-0.71875 0 -1.203125 0.484375q-0.484375 0.484375 -0.484375 1.546875l0 4.015625l-1.171875 0l0 -4.484375q0 -0.78125 -0.296875 -1.171875q-0.28125 -0.390625 -0.921875 -0.390625q-0.5 0 -0.921875 0.265625q-0.421875 0.25 -0.609375 0.75q-0.1875 0.5 -0.1875 1.453125l0 3.578125l-1.171875 0zm10.883667 0.578125l1.140625 0.15625q0.078125 0.53125 0.40625 0.78125q0.4375 0.3125 1.1875 0.3125q0.8125 0 1.25 -0.328125q0.453125 -0.3125 0.609375 -0.90625q0.09375 -0.359375 0.078125 -1.5q-0.765625 0.90625 -1.90625 0.90625q-1.4375 0 -2.21875 -1.03125q-0.78125 -1.03125 -0.78125 -2.46875q0 -0.984375 0.359375 -1.8125q0.359375 -0.84375 1.03125 -1.296875q0.6875 -0.453125 1.609375 -0.453125q1.21875 0 2.015625 0.984375l0 -0.828125l1.078125 0l0 5.96875q0 1.609375 -0.328125 2.28125q-0.328125 0.6875 -1.046875 1.078125q-0.703125 0.390625 -1.75 0.390625q-1.234375 0 -2.0 -0.5625q-0.75 -0.5625 -0.734375 -1.671875zm0.984375 -4.15625q0 1.359375 0.53125 1.984375q0.546875 0.625 1.359375 0.625q0.796875 0 1.34375 -0.625q0.546875 -0.625 0.546875 -1.953125q0 -1.265625 -0.5625 -1.90625q-0.5625 -0.640625 -1.359375 -0.640625q-0.765625 0 -1.3125 0.640625q-0.546875 0.625 -0.546875 1.875zm12.818726 -0.59375l-6.3125 2.703125l0 -1.171875l5.0 -2.078125l-5.0 -2.046875l0 -1.171875l6.3125 2.671875l0 1.09375z" fill-rule="nonzero"/><path fill="#eeeeee" d="m842.2572 477.93176l0 0c0 -28.623138 24.148438 -51.826782 53.93701 -51.826782l0 0c14.304993 0 28.024109 5.4602966 38.13922 15.179718c10.115173 9.719391 15.797791 22.901733 15.797791 36.647064l0 0c0 28.623138 -24.148438 51.826782 -53.93701 51.826782l0 0c-29.788574 0 -53.93701 -23.203644 -53.93701 -51.826782z" fill-rule="evenodd"/><path stroke="#595959" stroke-width="1.0" stroke-linejoin="round" stroke-linecap="butt" d="m842.2572 477.93176l0 0c0 -28.623138 24.148438 -51.826782 53.93701 -51.826782l0 0c14.304993 0 28.024109 5.4602966 38.13922 15.179718c10.115173 9.719391 15.797791 22.901733 15.797791 36.647064l0 0c0 28.623138 -24.148438 51.826782 -53.93701 51.826782l0 0c-29.788574 0 -53.93701 -23.203644 -53.93701 -51.826782z" fill-rule="evenodd"/><path fill="#000000" d="m874.69446 478.55988l0 -1.09375l6.3125 -2.671875l0 1.171875l-5.015625 2.046875l5.015625 2.078125l0 1.171875l-6.3125 -2.703125zm7.455261 2.109375l1.15625 -0.1875q0.109375 0.703125 0.546875 1.078125q0.453125 0.359375 1.25 0.359375q0.8125 0 1.203125 -0.328125q0.390625 -0.328125 0.390625 -0.765625q0 -0.390625 -0.359375 -0.625q-0.234375 -0.15625 -1.1875 -0.390625q-1.296875 -0.328125 -1.796875 -0.5625q-0.484375 -0.25 -0.75 -0.65625q-0.25 -0.421875 -0.25 -0.9375q0 -0.453125 0.203125 -0.84375q0.21875 -0.40625 0.578125 -0.671875q0.28125 -0.1875 0.75 -0.328125q0.46875 -0.140625 1.015625 -0.140625q0.8125 0 1.421875 0.234375q0.609375 0.234375 0.90625 0.640625q0.296875 0.390625 0.40625 1.0625l-1.140625 0.15625q-0.078125 -0.53125 -0.453125 -0.828125q-0.375 -0.3125 -1.0625 -0.3125q-0.8125 0 -1.15625 0.265625q-0.34375 0.265625 -0.34375 0.625q0 0.234375 0.140625 0.421875q0.15625 0.1875 0.453125 0.3125q0.171875 0.0625 1.03125 0.296875q1.25 0.328125 1.734375 0.546875q0.5 0.203125 0.78125 0.609375q0.28125 0.40625 0.28125 1.0q0 0.59375 -0.34375 1.109375q-0.34375 0.515625 -1.0 0.796875q-0.640625 0.28125 -1.453125 0.28125q-1.34375 0 -2.046875 -0.5625q-0.703125 -0.5625 -0.90625 -1.65625zm7.1328125 4.71875l0 -9.5625l1.078125 0l0 0.890625q0.375 -0.53125 0.84375 -0.78125q0.484375 -0.265625 1.15625 -0.265625q0.875 0 1.546875 0.453125q0.6875 0.453125 1.03125 1.28125q0.34375 0.828125 0.34375 1.828125q0 1.046875 -0.375 1.90625q-0.375 0.84375 -1.109375 1.296875q-0.71875 0.453125 -1.53125 0.453125q-0.578125 0 -1.046875 -0.25q-0.46875 -0.25 -0.765625 -0.625l0 3.375l-1.171875 0zm1.0625 -6.078125q0 1.34375 0.53125 1.984375q0.546875 0.625 1.3125 0.625q0.78125 0 1.34375 -0.65625q0.5625 -0.65625 0.5625 -2.046875q0 -1.3125 -0.546875 -1.96875q-0.546875 -0.671875 -1.296875 -0.671875q-0.75 0 -1.328125 0.703125q-0.578125 0.703125 -0.578125 2.03125zm10.865601 2.5625q-0.65625 0.5625 -1.265625 0.796875q-0.59375 0.21875 -1.28125 0.21875q-1.140625 0 -1.75 -0.546875q-0.609375 -0.5625 -0.609375 -1.4375q0 -0.5 0.21875 -0.921875q0.234375 -0.421875 0.609375 -0.671875q0.375 -0.25 0.84375 -0.390625q0.34375 -0.078125 1.046875 -0.171875q1.421875 -0.171875 2.09375 -0.40625q0 -0.234375 0 -0.296875q0 -0.71875 -0.328125 -1.015625q-0.453125 -0.390625 -1.34375 -0.390625q-0.8125 0 -1.21875 0.296875q-0.390625 0.28125 -0.578125 1.015625l-1.140625 -0.15625q0.15625 -0.734375 0.515625 -1.1875q0.359375 -0.453125 1.03125 -0.6875q0.671875 -0.25 1.5625 -0.25q0.890625 0 1.4375 0.203125q0.5625 0.203125 0.8125 0.53125q0.265625 0.3125 0.375 0.796875q0.046875 0.296875 0.046875 1.078125l0 1.5625q0 1.625 0.078125 2.0625q0.078125 0.4375 0.296875 0.828125l-1.21875 0q-0.1875 -0.359375 -0.234375 -0.859375zm-0.09375 -2.609375q-0.640625 0.265625 -1.921875 0.4375q-0.71875 0.109375 -1.015625 0.25q-0.296875 0.125 -0.46875 0.375q-0.15625 0.25 -0.15625 0.546875q0 0.46875 0.34375 0.78125q0.359375 0.3125 1.046875 0.3125q0.671875 0 1.203125 -0.296875q0.53125 -0.296875 0.78125 -0.8125q0.1875 -0.390625 0.1875 -1.171875l0 -0.421875zm2.9906006 3.46875l0 -6.90625l1.0625 0l0 0.984375q0.75 -1.140625 2.1875 -1.140625q0.625 0 1.15625 0.21875q0.53125 0.21875 0.78125 0.59375q0.265625 0.359375 0.375 0.859375q0.0625 0.328125 0.0625 1.140625l0 4.25l-1.171875 0l0 -4.203125q0 -0.71875 -0.140625 -1.0625q-0.140625 -0.359375 -0.484375 -0.5625q-0.34375 -0.21875 -0.8125 -0.21875q-0.75 0 -1.296875 0.46875q-0.546875 0.46875 -0.546875 1.796875l0 3.78125l-1.171875 0zm13.584351 -4.171875l-6.3125 2.703125l0 -1.171875l5.0 -2.078125l-5.0 -2.046875l0 -1.171875l6.3125 2.671875l0 1.09375z" fill-rule="nonzero"/><path fill="#000000" fill-opacity="0.0" d="m441.86078 133.88591l-114.04724 30.362198" fill-rule="evenodd"/><path stroke="#595959" stroke-width="1.0" stroke-linejoin="round" stroke-linecap="butt" d="m441.86078 133.88591l-114.04724 30.362198" fill-rule="evenodd"/><path fill="#000000" fill-opacity="0.0" d="m518.1392 133.88591l114.04724 17.952759" fill-rule="evenodd"/><path stroke="#595959" stroke-width="1.0" stroke-linejoin="round" stroke-linecap="butt" d="m518.1392 133.88591l114.04724 17.952759" fill-rule="evenodd"/><path fill="#000000" fill-opacity="0.0" d="m251.53268 237.53944l-31.590546 61.38582" fill-rule="evenodd"/><path stroke="#595959" stroke-width="1.0" stroke-linejoin="round" stroke-linecap="butt" d="m251.53268 237.53944l-31.590546 61.38582" fill-rule="evenodd"/><path fill="#000000" fill-opacity="0.0" d="m327.81113 237.53944l17.417328 61.38582" fill-rule="evenodd"/><path stroke="#595959" stroke-width="1.0" stroke-linejoin="round" stroke-linecap="butt" d="m327.81113 237.53944l17.417328 61.38582" fill-rule="evenodd"/><path fill="#000000" fill-opacity="0.0" d="m632.18884 225.12476l-17.858276 73.79526" fill-rule="evenodd"/><path stroke="#595959" stroke-width="1.0" stroke-linejoin="round" stroke-linecap="butt" d="m632.18884 225.12476l-17.858276 73.79526" fill-rule="evenodd"/><path fill="#000000" fill-opacity="0.0" d="m708.4673 225.12476l22.425232 71.93701" fill-rule="evenodd"/><path stroke="#595959" stroke-width="1.0" stroke-linejoin="round" stroke-linecap="butt" d="m708.4673 225.12476l22.425232 71.93701" fill-rule="evenodd"/><path fill="#000000" fill-opacity="0.0" d="m769.04724 385.52362l0 40.566925" fill-rule="evenodd"/><path stroke="#595959" stroke-width="1.0" stroke-linejoin="round" stroke-linecap="butt" d="m769.04724 385.52362l0 40.566925" fill-rule="evenodd"/><path fill="#000000" fill-opacity="0.0" d="m807.18646 370.3439l50.86615 70.92914" fill-rule="evenodd"/><path stroke="#595959" stroke-width="1.0" stroke-linejoin="round" stroke-linecap="butt" d="m807.18646 370.3439l50.86615 70.92914" fill-rule="evenodd"/></g></svg>