<svg version="1.1" viewBox="0.0 0.0 960.0 540.0" fill="none" stroke="none" stroke-linecap="square" stroke-miterlimit="10" xmlns:xlink="http://www.w3.org/1999/xlink" xmlns="http://www.w3.org/2000/svg"><clipPath id="gbadd3b4d17_0_2.0"><path d="m0 0l960.0 0l0 540.0l-960.0 0l0 -540.0z" clip-rule="nonzero"/></clipPath><g clip-path="url(#gbadd3b4d17_0_2.0)"><path fill="#000000" d="m0 0l960.0 0l0 540.0l-960.0 0z" fill-rule="evenodd"/><path fill="#eeeeee" d="m451.02362 94.32284l0 0c0 -15.324821 12.973175 -27.748032 28.97638 -27.748032l0 0c7.685028 0 15.055267 2.923439 20.48938 8.127205c5.434143 5.203766 8.4869995 12.261589 8.4869995 19.620827l0 0c0 15.324814 -12.973175 27.748032 -28.97638 27.748032l0 0c-16.003204 0 -28.97638 -12.423218 -28.97638 -27.748032z" fill-rule="evenodd"/><path stroke="#595959" stroke-width="1.0" stroke-linejoin="round" stroke-linecap="butt" d="m451.02362 94.32284l0 0c0 -15.324821 12.973175 -27.748032 28.97638 -27.748032l0 0c7.685028 0 15.055267 2.923439 20.48938 8.127205c5.434143 5.203766 8.4869995 12.261589 8.4869995 19.620827l0 0c0 15.324814 -12.973175 27.748032 -28.97638 27.748032l0 0c-16.003204 0 -28.97638 -12.423218 -28.97638 -27.748032z" fill-rule="evenodd"/><path fill="#000000" d="m469.29187 98.842834l0 -6.21875l0.953125 0l0 0.9375q0.359375 -0.65625 0.65625 -0.859375q0.3125 -0.21875 0.6875 -0.21875q0.53125 0 1.078125 0.328125l-0.359375 0.984375q-0.390625 -0.234375 -0.765625 -0.234375q-0.359375 0 -0.640625 0.21875q-0.265625 0.203125 -0.375 0.578125q-0.1875 0.5625 -0.1875 1.21875l0 3.265625l-1.046875 0zm3.6210938 -3.109375q0 -1.734375 0.953125 -2.5625q0.796875 -0.6875 1.953125 -0.6875q1.28125 0 2.09375 0.84375q0.828125 0.828125 0.828125 2.3125q0 1.203125 -0.359375 1.890625q-0.359375 0.6875 -1.0625 1.078125q-0.6875 0.375 -1.5 0.375q-1.296875 0 -2.109375 -0.828125q-0.796875 -0.84375 -0.796875 -2.421875zm1.078125 0q0 1.1875 0.515625 1.78125q0.53125 0.59375 1.3125 0.59375q0.796875 0 1.3125 -0.59375q0.515625 -0.59375 0.515625 -1.8125q0 -1.15625 -0.53125 -1.75q-0.515625 -0.59375 -1.296875 -0.59375q-0.78125 0 -1.3125 0.59375q-0.515625 0.578125 -0.515625 1.78125zm5.595703 0q0 -1.734375 0.953125 -2.5625q0.796875 -0.6875 1.953125 -0.6875q1.28125 0 2.09375 0.84375q0.828125 0.828125 0.828125 2.3125q0 1.203125 -0.359375 1.890625q-0.359375 0.6875 -1.0625 1.078125q-0.6875 0.375 -1.5 0.375q-1.296875 0 -2.109375 -0.828125q-0.796875 -0.84375 -0.796875 -2.421875zm1.078125 0q0 1.1875 0.515625 1.78125q0.53125 0.59375 1.3125 0.59375q0.796875 0 1.3125 -0.59375q0.515625 -0.59375 0.515625 -1.8125q0 -1.15625 -0.53125 -1.75q-0.515625 -0.59375 -1.296875 -0.59375q-0.78125 0 -1.3125 0.59375q-0.515625 0.578125 -0.515625 1.78125zm8.283203 2.171875l0.15625 0.921875q-0.453125 0.09375 -0.796875 0.09375q-0.578125 0 -0.890625 -0.171875q-0.3125 -0.1875 -0.453125 -0.484375q-0.125 -0.296875 -0.125 -1.25l0 -3.578125l-0.765625 0l0 -0.8125l0.765625 0l0 -1.546875l1.046875 -0.625l0 2.171875l1.0625 0l0 0.8125l-1.0625 0l0 3.640625q0 0.453125 0.046875 0.578125q0.0625 0.125 0.1875 0.203125q0.125 0.078125 0.359375 0.078125q0.1875 0 0.46875 -0.03125z" fill-rule="nonzero"/><path fill="#eeeeee" d="m302.22046 189.2546l0 0c0 -15.324814 12.973175 -27.748032 28.97638 -27.748032l0 0c7.685028 0 15.055267 2.9234467 20.48941 8.127213c5.4341125 5.203766 8.486969 12.261581 8.486969 19.62082l0 0c0 15.324814 -12.973145 27.748032 -28.97638 27.748032l0 0c-16.003204 0 -28.97638 -12.423218 -28.97638 -27.748032z" fill-rule="evenodd"/><path stroke="#595959" stroke-width="1.0" stroke-linejoin="round" stroke-linecap="butt" d="m302.22046 189.2546l0 0c0 -15.324814 12.973175 -27.748032 28.97638 -27.748032l0 0c7.685028 0 15.055267 2.9234467 20.48941 8.127213c5.4341125 5.203766 8.486969 12.261581 8.486969 19.62082l0 0c0 15.324814 -12.973145 27.748032 -28.97638 27.748032l0 0c-16.003204 0 -28.97638 -12.423218 -28.97638 -27.748032z" fill-rule="evenodd"/><path fill="#eeeeee" d="m606.6063 189.2546l0 0c0 -15.324814 12.973145 -27.748032 28.97638 -27.748032l0 0c7.6849976 0 15.055237 2.9234467 20.48938 8.127213c5.434143 5.203766 8.4869995 12.261581 8.4869995 19.62082l0 0c0 15.324814 -12.973206 27.748032 -28.97638 27.748032l0 0c-16.003235 0 -28.97638 -12.423218 -28.97638 -27.748032z" fill-rule="evenodd"/><path stroke="#595959" stroke-width="1.0" stroke-linejoin="round" stroke-linecap="butt" d="m606.6063 189.2546l0 0c0 -15.324814 12.973145 -27.748032 28.97638 -27.748032l0 0c7.6849976 0 15.055237 2.9234467 20.48938 8.127213c5.434143 5.203766 8.4869995 12.261581 8.4869995 19.62082l0 0c0 15.324814 -12.973206 27.748032 -28.97638 27.748032l0 0c-16.003235 0 -28.97638 -12.423218 -28.97638 -27.748032z" fill-rule="evenodd"/><path fill="#eeeeee" d="m210.70341 284.7953l0 0c0 -15.324829 12.97316 -27.748047 28.97638 -27.748047l0 0c7.685013 0 15.055267 2.923462 20.489395 8.127228c5.4341125 5.203766 8.486969 12.261566 8.486969 19.62082l0 0c0 15.324799 -12.97316 27.748016 -28.976364 27.748016l0 0c-16.00322 0 -28.97638 -12.423218 -28.97638 -27.748016z" fill-rule="evenodd"/><path stroke="#595959" stroke-width="1.0" stroke-linejoin="round" stroke-linecap="butt" d="m210.70341 284.7953l0 0c0 -15.324829 12.97316 -27.748047 28.97638 -27.748047l0 0c7.685013 0 15.055267 2.923462 20.489395 8.127228c5.4341125 5.203766 8.486969 12.261566 8.486969 19.62082l0 0c0 15.324799 -12.97316 27.748016 -28.976364 27.748016l0 0c-16.00322 0 -28.97638 -12.423218 -28.97638 -27.748016z" fill-rule="evenodd"/><path fill="#eeeeee" d="m691.6903 284.7953l0 0c0 -15.324829 12.973145 -27.748047 28.97638 -27.748047l0 0c7.6849976 0 15.055237 2.923462 20.48938 8.127228c5.434143 5.203766 8.4869995 12.261566 8.4869995 19.62082l0 0c0 15.324799 -12.973206 27.748016 -28.97638 27.748016l0 0c-16.003235 0 -28.97638 -12.423218 -28.97638 -27.748016z" fill-rule="evenodd"/><path stroke="#595959" stroke-width="1.0" stroke-linejoin="round" stroke-linecap="butt" d="m691.6903 284.7953l0 0c0 -15.324829 12.973145 -27.748047 28.97638 -27.748047l0 0c7.6849976 0 15.055237 2.923462 20.48938 8.127228c5.434143 5.203766 8.4869995 12.261566 8.4869995 19.62082l0 0c0 15.324799 -12.973206 27.748016 -28.97638 27.748016l0 0c-16.003235 0 -28.97638 -12.423218 -28.97638 -27.748016z" fill-rule="evenodd"/><path fill="#eeeeee" d="m379.36484 284.7953l0 0c0 -15.324829 12.973145 -27.748047 28.97638 -27.748047l0 0c7.6849976 0 15.055267 2.923462 20.48938 8.127228c5.434143 5.203766 8.4869995 12.261566 8.4869995 19.62082l0 0c0 15.324799 -12.973175 27.748016 -28.97638 27.748016l0 0c-16.003235 0 -28.97638 -12.423218 -28.97638 -27.748016z" fill-rule="evenodd"/><path stroke="#595959" stroke-width="1.0" stroke-linejoin="round" stroke-linecap="butt" d="m379.36484 284.7953l0 0c0 -15.324829 12.973145 -27.748047 28.97638 -27.748047l0 0c7.6849976 0 15.055267 2.923462 20.48938 8.127228c5.434143 5.203766 8.4869995 12.261566 8.4869995 19.62082l0 0c0 15.324799 -12.973175 27.748016 -28.97638 27.748016l0 0c-16.003235 0 -28.97638 -12.423218 -28.97638 -27.748016z" fill-rule="evenodd"/><path fill="#eeeeee" d="m529.9134 284.7953l0 0c0 -15.324829 12.973145 -27.748047 28.97638 -27.748047l0 0c7.6849976 0 15.055237 2.923462 20.48938 8.127228c5.434143 5.203766 8.4869995 12.261566 8.4869995 19.62082l0 0c0 15.324799 -12.973145 27.748016 -28.97638 27.748016l0 0c-16.003235 0 -28.97638 -12.423218 -28.97638 -27.748016z" fill-rule="evenodd"/><path stroke="#595959" stroke-width="1.0" stroke-linejoin="round" stroke-linecap="butt" d="m529.9134 284.7953l0 0c0 -15.324829 12.973145 -27.748047 28.97638 -27.748047l0 0c7.6849976 0 15.055237 2.923462 20.48938 8.127228c5.434143 5.203766 8.4869995 12.261566 8.4869995 19.62082l0 0c0 15.324799 -12.973145 27.748016 -28.97638 27.748016l0 0c-16.003235 0 -28.97638 -12.423218 -28.97638 -27.748016z" fill-rule="evenodd"/><path fill="#000000" fill-opacity="0.0" d="m203.0971 477.03674l73.165375 0l0 42.015747l-73.165375 0z" fill-rule="evenodd"/><path fill="#efefef" d="m213.2846 503.95676l0 -13.359375l1.640625 0l0 13.359375l-1.640625 0zm10.816696 -3.109375l1.6875 0.203125q-0.40625 1.484375 -1.484375 2.3125q-1.078125 0.8125 -2.765625 0.8125q-2.125 0 -3.375 -1.296875q-1.234375 -1.3125 -1.234375 -3.671875q0 -2.453125 1.25 -3.796875q1.265625 -1.34375 3.265625 -1.34375q1.9375 0 3.15625 1.328125q1.234375 1.3125 1.234375 3.703125q0 0.15625 0 0.4375l-7.21875 0q0.09375 1.59375 0.90625 2.453125q0.8125 0.84375 2.015625 0.84375q0.90625 0 1.546875 -0.46875q0.640625 -0.484375 1.015625 -1.515625zm-5.390625 -2.65625l5.40625 0q-0.109375 -1.21875 -0.625 -1.828125q-0.78125 -0.953125 -2.03125 -0.953125q-1.125 0 -1.90625 0.765625q-0.765625 0.75 -0.84375 2.015625zm15.453842 4.578125q-0.921875 0.765625 -1.765625 1.09375q-0.828125 0.3125 -1.796875 0.3125q-1.59375 0 -2.453125 -0.78125q-0.859375 -0.78125 -0.859375 -1.984375q0 -0.71875 0.328125 -1.296875q0.328125 -0.59375 0.84375 -0.9375q0.53125 -0.359375 1.1875 -0.546875q0.46875 -0.125 1.453125 -0.25q1.984375 -0.234375 2.921875 -0.5625q0.015625 -0.34375 0.015625 -0.421875q0 -1.0 -0.46875 -1.421875q-0.625 -0.546875 -1.875 -0.546875q-1.15625 0 -1.703125 0.40625q-0.546875 0.40625 -0.8125 1.421875l-1.609375 -0.21875q0.21875 -1.015625 0.71875 -1.640625q0.5 -0.640625 1.453125 -0.984375q0.953125 -0.34375 2.1875 -0.34375q1.25 0 2.015625 0.296875q0.78125 0.28125 1.140625 0.734375q0.375 0.4375 0.515625 1.109375q0.078125 0.421875 0.078125 1.515625l0 2.1875q0 2.28125 0.109375 2.890625q0.109375 0.59375 0.40625 1.15625l-1.703125 0q-0.265625 -0.515625 -0.328125 -1.1875zm-0.140625 -3.671875q-0.890625 0.375 -2.671875 0.625q-1.015625 0.140625 -1.4375 0.328125q-0.421875 0.1875 -0.65625 0.53125q-0.21875 0.34375 -0.21875 0.78125q0 0.65625 0.5 1.09375q0.5 0.4375 1.453125 0.4375q0.9375 0 1.671875 -0.40625q0.75 -0.421875 1.09375 -1.140625q0.265625 -0.5625 0.265625 -1.640625l0 -0.609375zm6.891342 4.859375l-3.6875 -9.671875l1.734375 0l2.078125 5.796875q0.328125 0.9375 0.625 1.9375q0.203125 -0.765625 0.609375 -1.828125l2.140625 -5.90625l1.6875 0l-3.65625 9.671875l-1.53125 0zm13.265625 -3.109375l1.6875 0.203125q-0.40625 1.484375 -1.484375 2.3125q-1.078125 0.8125 -2.765625 0.8125q-2.125 0 -3.375 -1.296875q-1.234375 -1.3125 -1.234375 -3.671875q0 -2.453125 1.25 -3.796875q1.265625 -1.34375 3.265625 -1.34375q1.9375 0 3.15625 1.328125q1.234375 1.3125 1.234375 3.703125q0 0.15625 0 0.4375l-7.21875 0q0.09375 1.59375 0.90625 2.453125q0.8125 0.84375 2.015625 0.84375q0.90625 0 1.546875 -0.46875q0.640625 -0.484375 1.015625 -1.515625zm-5.390625 -2.65625l5.40625 0q-0.109375 -1.21875 -0.625 -1.828125q-0.78125 -0.953125 -2.03125 -0.953125q-1.125 0 -1.90625 0.765625q-0.765625 0.75 -0.84375 2.015625zm8.485092 2.875l1.625 -0.25q0.125 0.96875 0.75 1.5q0.625 0.515625 1.75 0.515625q1.125 0 1.671875 -0.453125q0.546875 -0.46875 0.546875 -1.09375q0 -0.546875 -0.484375 -0.875q-0.328125 -0.21875 -1.671875 -0.546875q-1.8125 -0.46875 -2.515625 -0.796875q-0.6875 -0.328125 -1.046875 -0.90625q-0.359375 -0.59375 -0.359375 -1.3125q0 -0.640625 0.296875 -1.1875q0.296875 -0.5625 0.8125 -0.921875q0.375 -0.28125 1.03125 -0.46875q0.671875 -0.203125 1.421875 -0.203125q1.140625 0 2.0 0.328125q0.859375 0.328125 1.265625 0.890625q0.421875 0.5625 0.578125 1.5l-1.609375 0.21875q-0.109375 -0.75 -0.640625 -1.171875q-0.515625 -0.421875 -1.46875 -0.421875q-1.140625 0 -1.625 0.375q-0.46875 0.375 -0.46875 0.875q0 0.3125 0.1875 0.578125q0.203125 0.265625 0.640625 0.4375q0.234375 0.09375 1.4375 0.421875q1.75 0.453125 2.4375 0.75q0.6875 0.296875 1.078125 0.859375q0.390625 0.5625 0.390625 1.40625q0 0.828125 -0.484375 1.546875q-0.46875 0.71875 -1.375 1.125q-0.90625 0.390625 -2.046875 0.390625q-1.875 0 -2.875 -0.78125q-0.984375 -0.78125 -1.25 -2.328125z" fill-rule="nonzero"/><path fill="#eeeeee" d="m115.64829 381.55118l0 0c0 -15.324799 12.973167 -27.748016 28.976372 -27.748016l0 0c7.685028 0 15.055283 2.9234314 20.489395 8.127197c5.434128 5.203766 8.486984 12.261597 8.486984 19.62082l0 0c0 15.324829 -12.97316 27.748047 -28.97638 27.748047l0 0c-16.003204 0 -28.976372 -12.423218 -28.976372 -27.748047z" fill-rule="evenodd"/><path stroke="#595959" stroke-width="1.0" stroke-linejoin="round" stroke-linecap="butt" d="m115.64829 381.55118l0 0c0 -15.324799 12.973167 -27.748016 28.976372 -27.748016l0 0c7.685028 0 15.055283 2.9234314 20.489395 8.127197c5.434128 5.203766 8.486984 12.261597 8.486984 19.62082l0 0c0 15.324829 -12.97316 27.748047 -28.97638 27.748047l0 0c-16.003204 0 -28.976372 -12.423218 -28.976372 -27.748047z" fill-rule="evenodd"/><path fill="#eeeeee" d="m210.70341 381.55118l0 0c0 -15.324799 12.97316 -27.748016 28.97638 -27.748016l0 0c7.685013 0 15.055267 2.9234314 20.489395 8.127197c5.4341125 5.203766 8.486969 12.261597 8.486969 19.62082l0 0c0 15.324829 -12.97316 27.748047 -28.976364 27.748047l0 0c-16.00322 0 -28.97638 -12.423218 -28.97638 -27.748047z" fill-rule="evenodd"/><path stroke="#595959" stroke-width="1.0" stroke-linejoin="round" stroke-linecap="butt" d="m210.70341 381.55118l0 0c0 -15.324799 12.97316 -27.748016 28.97638 -27.748016l0 0c7.685013 0 15.055267 2.9234314 20.489395 8.127197c5.4341125 5.203766 8.486969 12.261597 8.486969 19.62082l0 0c0 15.324829 -12.97316 27.748047 -28.976364 27.748047l0 0c-16.00322 0 -28.97638 -12.423218 -28.97638 -27.748047z" fill-rule="evenodd"/><path fill="#eeeeee" d="m305.75854 381.55118l0 0c0 -15.324799 12.973145 -27.748016 28.976349 -27.748016l0 0c7.685028 0 15.055298 2.9234314 20.48941 8.127197c5.4341125 5.203766 8.486969 12.261597 8.486969 19.62082l0 0c0 15.324829 -12.973145 27.748047 -28.97638 27.748047l0 0c-16.003204 0 -28.976349 -12.423218 -28.976349 -27.748047z" fill-rule="evenodd"/><path stroke="#595959" stroke-width="1.0" stroke-linejoin="round" stroke-linecap="butt" d="m305.75854 381.55118l0 0c0 -15.324799 12.973145 -27.748016 28.976349 -27.748016l0 0c7.685028 0 15.055298 2.9234314 20.48941 8.127197c5.4341125 5.203766 8.486969 12.261597 8.486969 19.62082l0 0c0 15.324829 -12.973145 27.748047 -28.97638 27.748047l0 0c-16.003204 0 -28.976349 -12.423218 -28.976349 -27.748047z" fill-rule="evenodd"/><path fill="#eeeeee" d="m451.02362 381.55643l0 0c0 -15.324799 12.973175 -27.748016 28.97638 -27.748016l0 0c7.685028 0 15.055267 2.9234314 20.48938 8.127197c5.434143 5.203766 8.4869995 12.261597 8.4869995 19.62082l0 0c0 15.324829 -12.973175 27.748047 -28.97638 27.748047l0 0c-16.003204 0 -28.97638 -12.423218 -28.97638 -27.748047z" fill-rule="evenodd"/><path stroke="#595959" stroke-width="1.0" stroke-linejoin="round" stroke-linecap="butt" d="m451.02362 381.55643l0 0c0 -15.324799 12.973175 -27.748016 28.97638 -27.748016l0 0c7.685028 0 15.055267 2.9234314 20.48938 8.127197c5.434143 5.203766 8.4869995 12.261597 8.4869995 19.62082l0 0c0 15.324829 -12.973175 27.748047 -28.97638 27.748047l0 0c-16.003204 0 -28.97638 -12.423218 -28.97638 -27.748047z" fill-rule="evenodd"/><path fill="#eeeeee" d="m606.6063 381.55643l0 0c0 -15.324799 12.973145 -27.748016 28.97638 -27.748016l0 0c7.6849976 0 15.055237 2.9234314 20.48938 8.127197c5.434143 5.203766 8.4869995 12.261597 8.4869995 19.62082l0 0c0 15.324829 -12.973206 27.748047 -28.97638 27.748047l0 0c-16.003235 0 -28.97638 -12.423218 -28.97638 -27.748047z" fill-rule="evenodd"/><path stroke="#595959" stroke-width="1.0" stroke-linejoin="round" stroke-linecap="butt" d="m606.6063 381.55643l0 0c0 -15.324799 12.973145 -27.748016 28.97638 -27.748016l0 0c7.6849976 0 15.055237 2.9234314 20.48938 8.127197c5.434143 5.203766 8.4869995 12.261597 8.4869995 19.62082l0 0c0 15.324829 -12.973206 27.748047 -28.97638 27.748047l0 0c-16.003235 0 -28.97638 -12.423218 -28.97638 -27.748047z" fill-rule="evenodd"/><path fill="#000000" fill-opacity="0.0" d="m451.02362 94.32284l-99.33859 75.30709" fill-rule="evenodd"/><path stroke="#595959" stroke-width="1.0" stroke-linejoin="round" stroke-linecap="butt" d="m451.02362 94.32284l-99.33859 75.30709" fill-rule="evenodd"/><path fill="#000000" fill-opacity="0.0" d="m508.97638 94.32284l106.11023 75.30709" fill-rule="evenodd"/><path stroke="#595959" stroke-width="1.0" stroke-linejoin="round" stroke-linecap="butt" d="m508.97638 94.32284l106.11023 75.30709" fill-rule="evenodd"/><path fill="#000000" fill-opacity="0.0" d="m351.68625 208.87541l36.15747 56.283463" fill-rule="evenodd"/><path stroke="#595959" stroke-width="1.0" stroke-linejoin="round" stroke-linecap="butt" d="m351.68625 208.87541l36.15747 56.283463" fill-rule="evenodd"/><path fill="#000000" fill-opacity="0.0" d="m310.70746 208.87541l-50.551178 56.283463" fill-rule="evenodd"/><path stroke="#595959" stroke-width="1.0" stroke-linejoin="round" stroke-linecap="butt" d="m310.70746 208.87541l-50.551178 56.283463" fill-rule="evenodd"/><path fill="#000000" fill-opacity="0.0" d="m219.1904 304.4161l-54.078735 57.51181" fill-rule="evenodd"/><path stroke="#595959" stroke-width="1.0" stroke-linejoin="round" stroke-linecap="butt" d="m219.1904 304.4161l-54.078735 57.51181" fill-rule="evenodd"/><path fill="#000000" fill-opacity="0.0" d="m239.6798 312.5433l0 41.259857" fill-rule="evenodd"/><path stroke="#595959" stroke-width="1.0" stroke-linejoin="round" stroke-linecap="butt" d="m239.6798 312.5433l0 41.259857" fill-rule="evenodd"/><path fill="#000000" fill-opacity="0.0" d="m260.1692 304.4161l54.078735 57.51181" fill-rule="evenodd"/><path stroke="#595959" stroke-width="1.0" stroke-linejoin="round" stroke-linecap="butt" d="m260.1692 304.4161l54.078735 57.51181" fill-rule="evenodd"/><path fill="#000000" fill-opacity="0.0" d="m615.09326 208.87541l-35.71649 56.283463" fill-rule="evenodd"/><path stroke="#595959" stroke-width="1.0" stroke-linejoin="round" stroke-linecap="butt" d="m615.09326 208.87541l-35.71649 56.283463" fill-rule="evenodd"/><path fill="#000000" fill-opacity="0.0" d="m538.4004 304.4161l-37.921295 57.51181" fill-rule="evenodd"/><path stroke="#595959" stroke-width="1.0" stroke-linejoin="round" stroke-linecap="butt" d="m538.4004 304.4161l-37.921295 57.51181" fill-rule="evenodd"/><path fill="#000000" fill-opacity="0.0" d="m579.37915 304.4161l35.716553 57.51181" fill-rule="evenodd"/><path stroke="#595959" stroke-width="1.0" stroke-linejoin="round" stroke-linecap="butt" d="m579.37915 304.4161l35.716553 57.51181" fill-rule="evenodd"/><path fill="#000000" fill-opacity="0.0" d="m656.0721 208.87541l44.094482 56.283463" fill-rule="evenodd"/><path stroke="#595959" stroke-width="1.0" stroke-linejoin="round" stroke-linecap="butt" d="m656.0721 208.87541l44.094482 56.283463" fill-rule="evenodd"/><path fill="#eeeeee" d="m767.72705 381.55643l0 0c0 -15.324799 12.973145 -27.748016 28.97638 -27.748016l0 0c7.6849976 0 15.055237 2.9234314 20.48938 8.127197c5.434143 5.203766 8.4869995 12.261597 8.4869995 19.62082l0 0c0 15.324829 -12.973206 27.748047 -28.97638 27.748047l0 0c-16.003235 0 -28.97638 -12.423218 -28.97638 -27.748047z" fill-rule="evenodd"/><path stroke="#595959" stroke-width="1.0" stroke-linejoin="round" stroke-linecap="butt" d="m767.72705 381.55643l0 0c0 -15.324799 12.973145 -27.748016 28.97638 -27.748016l0 0c7.6849976 0 15.055237 2.9234314 20.48938 8.127197c5.434143 5.203766 8.4869995 12.261597 8.4869995 19.62082l0 0c0 15.324829 -12.973206 27.748047 -28.97638 27.748047l0 0c-16.003235 0 -28.97638 -12.423218 -28.97638 -27.748047z" fill-rule="evenodd"/><path fill="#eeeeee" d="m252.12846 482.63803l48.692368 -53.9375l-2.1811218 -1.9685059l8.299774 -0.42471313l0.4246521 8.298706l-2.1810913 -1.9685059l-48.692383 53.93753z" fill-rule="evenodd"/><path stroke="#595959" stroke-width="1.0" stroke-linejoin="round" stroke-linecap="butt" d="m252.12846 482.63803l48.692368 -53.9375l-2.1811218 -1.9685059l8.299774 -0.42471313l0.4246521 8.298706l-2.1810913 -1.9685059l-48.692383 53.93753z" fill-rule="evenodd"/><path fill="#eeeeee" d="m231.86867 488.1601l-52.34297 -52.255432l-2.0787506 2.0787354l-0.0034637451 -8.311493l8.318436 -0.003479004l-2.0787506 2.0787354l52.342987 52.255463z" fill-rule="evenodd"/><path stroke="#595959" stroke-width="1.0" stroke-linejoin="round" stroke-linecap="butt" d="m231.86867 488.1601l-52.34297 -52.255432l-2.0787506 2.0787354l-0.0034637451 -8.311493l8.318436 -0.003479004l-2.0787506 2.0787354l52.342987 52.255463z" fill-rule="evenodd"/><path fill="#eeeeee" d="m241.04097 486.84348l0.08564758 -56.897644l-2.9369965 0l5.8828583 -5.8740234l5.8651733 5.8740234l-2.9370117 0l-0.08564758 56.897644z" fill-rule="evenodd"/><path stroke="#595959" stroke-width="1.0" stroke-linejoin="round" stroke-linecap="butt" d="m241.04097 486.84348l0.08564758 -56.897644l-2.9369965 0l5.8828583 -5.8740234l5.8651733 5.8740234l-2.9370117 0l-0.08564758 56.897644z" fill-rule="evenodd"/><path fill="#000000" fill-opacity="0.0" d="m13.207349 73.314964l131.43307 0l0 42.015747l-131.43307 0z" fill-rule="evenodd"/><path fill="#efefef" d="m23.566725 100.23496l0 -13.359375l1.78125 0l0 11.78125l6.5625 0l0 1.578125l-8.34375 0zm16.875715 -3.109375l1.6875 0.203125q-0.40625 1.484375 -1.484375 2.3125q-1.078125 0.8125 -2.765625 0.8125q-2.125 0 -3.375 -1.296875q-1.234375 -1.3125 -1.234375 -3.671875q0 -2.453125 1.25 -3.796875q1.265625 -1.34375 3.265625 -1.34375q1.9375 0 3.15625 1.328125q1.234375 1.3125 1.234375 3.703125q0 0.15625 0 0.4375l-7.21875 0q0.09375 1.59375 0.90625 2.453125q0.8125 0.84375 2.015625 0.84375q0.90625 0 1.546875 -0.46875q0.640625 -0.484375 1.015625 -1.515625zm-5.390625 -2.65625l5.40625 0q-0.109375 -1.21875 -0.625 -1.828125q-0.78125 -0.953125 -2.03125 -0.953125q-1.125 0 -1.90625 0.765625q-0.765625 0.75 -0.84375 2.015625zm11.828842 5.765625l-3.6875 -9.671875l1.734375 0l2.078125 5.796875q0.328125 0.9375 0.625 1.9375q0.203125 -0.765625 0.609375 -1.828125l2.140625 -5.90625l1.6875 0l-3.65625 9.671875l-1.53125 0zm13.265625 -3.109375l1.6875 0.203125q-0.40625 1.484375 -1.484375 2.3125q-1.078125 0.8125 -2.765625 0.8125q-2.125 0 -3.375 -1.296875q-1.234375 -1.3125 -1.234375 -3.671875q0 -2.453125 1.25 -3.796875q1.265625 -1.34375 3.265625 -1.34375q1.9375 0 3.15625 1.328125q1.234375 1.3125 1.234375 3.703125q0 0.15625 0 0.4375l-7.21875 0q0.09375 1.59375 0.90625 2.453125q0.8125 0.84375 2.015625 0.84375q0.90625 0 1.546875 -0.46875q0.640625 -0.484375 1.015625 -1.515625zm-5.390625 -2.65625l5.40625 0q-0.109375 -1.21875 -0.625 -1.828125q-0.78125 -0.953125 -2.03125 -0.953125q-1.125 0 -1.90625 0.765625q-0.765625 0.75 -0.84375 2.015625zm9.094467 5.765625l0 -13.359375l1.6406288 0l0 13.359375l-1.6406288 0zm8.921879 -6.59375q0 -2.359375 0.484375 -3.796875q0.484375 -1.453125 1.4375 -2.234375q0.96875 -0.78125 2.421875 -0.78125q1.078125 0 1.890625 0.4375q0.8125 0.421875 1.328125 1.25q0.53125 0.8125 0.828125 1.984375q0.3125 1.15625 0.3125 3.140625q0 2.359375 -0.484375 3.8125q-0.484375 1.4375 -1.453125 2.234375q-0.953125 0.78125 -2.421875 0.78125q-1.921875 0 -3.03125 -1.390625q-1.3125 -1.671875 -1.3125 -5.4375zm1.671875 0q0 3.296875 0.765625 4.390625q0.78125 1.078125 1.90625 1.078125q1.140625 0 1.90625 -1.09375q0.765625 -1.09375 0.765625 -4.375q0 -3.296875 -0.765625 -4.375q-0.765625 -1.078125 -1.921875 -1.078125q-1.125 0 -1.796875 0.953125q-0.859375 1.21875 -0.859375 4.5z" fill-rule="nonzero"/><path fill="#000000" fill-opacity="0.0" d="m13.207349 168.24672l131.43307 0l0 42.015747l-131.43307 0z" fill-rule="evenodd"/><path fill="#efefef" d="m23.566725 195.16672l0 -13.359375l1.78125 0l0 11.78125l6.5625 0l0 1.578125l-8.34375 0zm16.875715 -3.109375l1.6875 0.203125q-0.40625 1.484375 -1.484375 2.3125q-1.078125 0.8125 -2.765625 0.8125q-2.125 0 -3.375 -1.296875q-1.234375 -1.3125 -1.234375 -3.671875q0 -2.453125 1.25 -3.796875q1.265625 -1.34375 3.265625 -1.34375q1.9375 0 3.15625 1.328125q1.234375 1.3125 1.234375 3.703125q0 0.15625 0 0.4375l-7.21875 0q0.09375 1.59375 0.90625 2.453125q0.8125 0.84375 2.015625 0.84375q0.90625 0 1.546875 -0.46875q0.640625 -0.484375 1.015625 -1.515625zm-5.390625 -2.65625l5.40625 0q-0.109375 -1.21875 -0.625 -1.828125q-0.78125 -0.953125 -2.03125 -0.953125q-1.125 0 -1.90625 0.765625q-0.765625 0.75 -0.84375 2.015625zm11.828842 5.765625l-3.6875 -9.671875l1.734375 0l2.078125 5.796875q0.328125 0.9375 0.625 1.9375q0.203125 -0.765625 0.609375 -1.828125l2.140625 -5.90625l1.6875 0l-3.65625 9.671875l-1.53125 0zm13.265625 -3.109375l1.6875 0.203125q-0.40625 1.484375 -1.484375 2.3125q-1.078125 0.8125 -2.765625 0.8125q-2.125 0 -3.375 -1.296875q-1.234375 -1.3125 -1.234375 -3.671875q0 -2.453125 1.25 -3.796875q1.265625 -1.34375 3.265625 -1.34375q1.9375 0 3.15625 1.328125q1.234375 1.3125 1.234375 3.703125q0 0.15625 0 0.4375l-7.21875 0q0.09375 1.59375 0.90625 2.453125q0.8125 0.84375 2.015625 0.84375q0.90625 0 1.546875 -0.46875q0.640625 -0.484375 1.015625 -1.515625zm-5.390625 -2.65625l5.40625 0q-0.109375 -1.21875 -0.625 -1.828125q-0.78125 -0.953125 -2.03125 -0.953125q-1.125 0 -1.90625 0.765625q-0.765625 0.75 -0.84375 2.015625zm9.094467 5.765625l0 -13.359375l1.6406288 0l0 13.359375l-1.6406288 0zm15.093754 0l-1.640625 0l0 -10.453125q-0.59375 0.5625 -1.5625 1.140625q-0.953125 0.5625 -1.71875 0.84375l0 -1.59375q1.375 -0.640625 2.40625 -1.5625q1.03125 -0.921875 1.453125 -1.78125l1.0625 0l0 13.40625z" fill-rule="nonzero"/><path fill="#000000" fill-opacity="0.0" d="m13.207349 263.17847l131.43307 0l0 42.015747l-131.43307 0z" fill-rule="evenodd"/><path fill="#efefef" d="m23.566725 290.09848l0 -13.359375l1.78125 0l0 11.78125l6.5625 0l0 1.578125l-8.34375 0zm16.875715 -3.109375l1.6875 0.203125q-0.40625 1.484375 -1.484375 2.3125q-1.078125 0.8125 -2.765625 0.8125q-2.125 0 -3.375 -1.296875q-1.234375 -1.3125 -1.234375 -3.671875q0 -2.453125 1.25 -3.796875q1.265625 -1.34375 3.265625 -1.34375q1.9375 0 3.15625 1.328125q1.234375 1.3125 1.234375 3.703125q0 0.15625 0 0.4375l-7.21875 0q0.09375 1.59375 0.90625 2.453125q0.8125 0.84375 2.015625 0.84375q0.90625 0 1.546875 -0.46875q0.640625 -0.484375 1.015625 -1.515625zm-5.390625 -2.65625l5.40625 0q-0.109375 -1.21875 -0.625 -1.828125q-0.78125 -0.953125 -2.03125 -0.953125q-1.125 0 -1.90625 0.765625q-0.765625 0.75 -0.84375 2.015625zm11.828842 5.765625l-3.6875 -9.671875l1.734375 0l2.078125 5.796875q0.328125 0.9375 0.625 1.9375q0.203125 -0.765625 0.609375 -1.828125l2.140625 -5.90625l1.6875 0l-3.65625 9.671875l-1.53125 0zm13.265625 -3.109375l1.6875 0.203125q-0.40625 1.484375 -1.484375 2.3125q-1.078125 0.8125 -2.765625 0.8125q-2.125 0 -3.375 -1.296875q-1.234375 -1.3125 -1.234375 -3.671875q0 -2.453125 1.25 -3.796875q1.265625 -1.34375 3.265625 -1.34375q1.9375 0 3.15625 1.328125q1.234375 1.3125 1.234375 3.703125q0 0.15625 0 0.4375l-7.21875 0q0.09375 1.59375 0.90625 2.453125q0.8125 0.84375 2.015625 0.84375q0.90625 0 1.546875 -0.46875q0.640625 -0.484375 1.015625 -1.515625zm-5.390625 -2.65625l5.40625 0q-0.109375 -1.21875 -0.625 -1.828125q-0.78125 -0.953125 -2.03125 -0.953125q-1.125 0 -1.90625 0.765625q-0.765625 0.75 -0.84375 2.015625zm9.094467 5.765625l0 -13.359375l1.6406288 0l0 13.359375l-1.6406288 0zm17.531254 -1.578125l0 1.578125l-8.828125 0q-0.015625 -0.59375 0.1875 -1.140625q0.34375 -0.90625 1.078125 -1.78125q0.75 -0.875 2.15625 -2.015625q2.171875 -1.78125 2.9375 -2.828125q0.765625 -1.046875 0.765625 -1.96875q0 -0.984375 -0.703125 -1.640625q-0.6875 -0.671875 -1.8125 -0.671875q-1.1875 0 -1.90625 0.71875q-0.703125 0.703125 -0.703125 1.953125l-1.6875 -0.171875q0.171875 -1.890625 1.296875 -2.875q1.140625 -0.984375 3.03125 -0.984375q1.921875 0 3.046875 1.0625q1.125 1.0625 1.125 2.640625q0 0.796875 -0.328125 1.578125q-0.328125 0.78125 -1.09375 1.640625q-0.75 0.84375 -2.53125 2.34375q-1.46875 1.234375 -1.890625 1.6875q-0.421875 0.4375 -0.6875 0.875l6.546875 0z" fill-rule="nonzero"/><path fill="#000000" fill-opacity="0.0" d="m13.207349 360.54855l131.43307 0l0 42.015747l-131.43307 0z" fill-rule="evenodd"/><path fill="#efefef" d="m23.566725 387.46857l0 -13.359375l1.78125 0l0 11.78125l6.5625 0l0 1.578125l-8.34375 0zm16.875715 -3.109375l1.6875 0.203125q-0.40625 1.484375 -1.484375 2.3125q-1.078125 0.8125 -2.765625 0.8125q-2.125 0 -3.375 -1.296875q-1.234375 -1.3125 -1.234375 -3.671875q0 -2.453125 1.25 -3.796875q1.265625 -1.34375 3.265625 -1.34375q1.9375 0 3.15625 1.328125q1.234375 1.3125 1.234375 3.703125q0 0.15625 0 0.4375l-7.21875 0q0.09375 1.59375 0.90625 2.453125q0.8125 0.84375 2.015625 0.84375q0.90625 0 1.546875 -0.46875q0.640625 -0.484375 1.015625 -1.515625zm-5.390625 -2.65625l5.40625 0q-0.109375 -1.21875 -0.625 -1.828125q-0.78125 -0.953125 -2.03125 -0.953125q-1.125 0 -1.90625 0.765625q-0.765625 0.75 -0.84375 2.015625zm11.828842 5.765625l-3.6875 -9.671875l1.734375 0l2.078125 5.796875q0.328125 0.9375 0.625 1.9375q0.203125 -0.765625 0.609375 -1.828125l2.140625 -5.90625l1.6875 0l-3.65625 9.671875l-1.53125 0zm13.265625 -3.109375l1.6875 0.203125q-0.40625 1.484375 -1.484375 2.3125q-1.078125 0.8125 -2.765625 0.8125q-2.125 0 -3.375 -1.296875q-1.234375 -1.3125 -1.234375 -3.671875q0 -2.453125 1.25 -3.796875q1.265625 -1.34375 3.265625 -1.34375q1.9375 0 3.15625 1.328125q1.234375 1.3125 1.234375 3.703125q0 0.15625 0 0.4375l-7.21875 0q0.09375 1.59375 0.90625 2.453125q0.8125 0.84375 2.015625 0.84375q0.90625 0 1.546875 -0.46875q0.640625 -0.484375 1.015625 -1.515625zm-5.390625 -2.65625l5.40625 0q-0.109375 -1.21875 -0.625 -1.828125q-0.78125 -0.953125 -2.03125 -0.953125q-1.125 0 -1.90625 0.765625q-0.765625 0.75 -0.84375 2.015625zm9.094467 5.765625l0 -13.359375l1.6406288 0l0 13.359375l-1.6406288 0zm8.921879 -3.53125l1.640625 -0.21875q0.28125 1.40625 0.953125 2.015625q0.6875 0.609375 1.65625 0.609375q1.15625 0 1.953125 -0.796875q0.796875 -0.796875 0.796875 -1.984375q0 -1.125 -0.734375 -1.859375q-0.734375 -0.734375 -1.875 -0.734375q-0.46875 0 -1.15625 0.171875l0.1875 -1.4375q0.15625 0.015625 0.265625 0.015625q1.046875 0 1.875 -0.546875q0.84375 -0.546875 0.84375 -1.671875q0 -0.90625 -0.609375 -1.5q-0.609375 -0.59375 -1.578125 -0.59375q-0.953125 0 -1.59375 0.609375q-0.640625 0.59375 -0.8125 1.796875l-1.640625 -0.296875q0.296875 -1.640625 1.359375 -2.546875q1.0625 -0.90625 2.65625 -0.90625q1.09375 0 2.0 0.46875q0.921875 0.46875 1.40625 1.28125q0.5 0.8125 0.5 1.71875q0 0.859375 -0.46875 1.578125q-0.46875 0.703125 -1.375 1.125q1.1875 0.28125 1.84375 1.140625q0.65625 0.859375 0.65625 2.15625q0 1.734375 -1.28125 2.953125q-1.265625 1.21875 -3.21875 1.21875q-1.765625 0 -2.921875 -1.046875q-1.15625 -1.046875 -1.328125 -2.71875z" fill-rule="nonzero"/><path fill="#000000" fill-opacity="0.0" d="m741.15607 304.4161l35.055115 57.51181" fill-rule="evenodd"/><path stroke="#595959" stroke-width="1.0" stroke-linejoin="round" stroke-linecap="butt" d="m741.15607 304.4161l35.055115 57.51181" fill-rule="evenodd"/></g></svg>